<svg xmlns="http://www.w3.org/2000/svg" width="32" height="32" viewBox="0 0 32 32">
  <g id="Group_605" data-name="Group 605" transform="translate(20669 21514)">
    <circle id="Ellipse_32" data-name="Ellipse 32" cx="16" cy="16" r="16" transform="translate(-20669 -21514)"/>
    <path id="Icon_awesome-apple" data-name="Icon awesome-apple" d="M12.636,11.542A3.665,3.665,0,0,1,14.6,8.213a4.218,4.218,0,0,0-3.325-1.751c-1.394-.11-2.917.813-3.474.813-.589,0-1.939-.773-3-.773C2.609,6.537.281,8.249.281,11.731a9.785,9.785,0,0,0,.565,3.188c.5,1.441,2.316,4.974,4.208,4.915.989-.024,1.688-.7,2.976-.7,1.248,0,1.9.7,3,.7,1.908-.027,3.549-3.239,4.028-4.683a3.892,3.892,0,0,1-2.422-3.608ZM10.414,5.1a3.7,3.7,0,0,0,.942-2.846A4.163,4.163,0,0,0,8.69,3.62a3.755,3.755,0,0,0-1,2.823A3.3,3.3,0,0,0,10.414,5.1Z" transform="translate(-20660.67 -21510.424)" fill="#fff"/>
  </g>
</svg>
