<svg xmlns="http://www.w3.org/2000/svg" xmlns:xlink="http://www.w3.org/1999/xlink" width="36" height="36" viewBox="0 0 36 36">
  <defs>
    <filter id="Ellipse_26" x="0" y="0" width="36" height="36" filterUnits="userSpaceOnUse">
      <feOffset dy="1" input="SourceAlpha"/>
      <feGaussianBlur stdDeviation="1" result="blur"/>
      <feFlood flood-opacity="0.078"/>
      <feComposite operator="in" in2="blur"/>
      <feComposite in="SourceGraphic"/>
    </filter>
  </defs>
  <g id="Group_1489" data-name="Group 1489" transform="translate(-1017.361 -148)">
    <g transform="matrix(1, 0, 0, 1, 1017.36, 148)" filter="url(#Ellipse_26)">
      <circle id="Ellipse_26-2" data-name="Ellipse 26" cx="15" cy="15" r="15" transform="translate(3 2)" fill="#fff"/>
    </g>
    <g id="Group_500" data-name="Group 500" transform="translate(1027.361 157)">
      <path id="Path_109" data-name="Path 109" d="M5.213,4.91l.338-1.69A1.518,1.518,0,0,1,7.04,2h5.1A1.518,1.518,0,0,1,13.63,3.221l.338,1.69a1.426,1.426,0,0,0,1.053,1.1,2.852,2.852,0,0,1,2.16,2.767v5.363a3.036,3.036,0,0,1-3.036,3.036H5.036A3.036,3.036,0,0,1,2,14.145V8.781A2.853,2.853,0,0,1,4.16,6.014a1.426,1.426,0,0,0,1.053-1.1Z" transform="translate(-2 -2)" fill="none" stroke="#438ac1" stroke-linecap="round" stroke-linejoin="round" stroke-width="1"/>
      <circle id="Ellipse_24" data-name="Ellipse 24" cx="3" cy="3" r="3" transform="translate(4.771 6.41)" fill="none" stroke="#438ac1" stroke-linecap="round" stroke-linejoin="round" stroke-width="1"/>
      <path id="Path_110" data-name="Path 110" d="M11,6h1.518" transform="translate(-4.169 -2.964)" fill="none" stroke="#438ac1" stroke-linecap="round" stroke-linejoin="round" stroke-width="1"/>
    </g>
  </g>
</svg>
