<svg xmlns="http://www.w3.org/2000/svg" width="32" height="32" viewBox="0 0 32 32">
  <g id="Group_606" data-name="Group 606" transform="translate(20627 21514)">
    <circle id="Ellipse_33" data-name="Ellipse 33" cx="16" cy="16" r="16" transform="translate(-20627 -21514)" fill="#db4437"/>
    <path id="Icon_awesome-google" data-name="Icon awesome-google" d="M17.129,9.471a8.084,8.084,0,0,1-8.424,8.5A8.7,8.7,0,0,1,8.7.563a8.371,8.371,0,0,1,5.837,2.278L12.173,5.119C9.073,2.128,3.31,4.374,3.31,9.267a5.453,5.453,0,0,0,5.395,5.5,4.707,4.707,0,0,0,4.942-3.752H8.7V8.018h8.287A7.631,7.631,0,0,1,17.129,9.471Z" transform="translate(-20620 -21507.563)" fill="#fff"/>
  </g>
</svg>
