<svg id="Layer_1" data-name="Layer 1" xmlns="http://www.w3.org/2000/svg" width="42" height="42" viewBox="0 0 42 42">
  <path id="Path_633" data-name="Path 633" d="M104.98,256.836v7.957l2.637,2.637h1.773V254.2h-1.773Z" transform="translate(-98.89 -239.454)" fill="#fff"/>
  <path id="Path_634" data-name="Path 634" d="M197.35,254.2h-4.69v2.636h2.916v4.433l4.41-2.426v-2.007Z" transform="translate(-181.484 -239.454)" fill="#fff"/>
  <path id="Path_635" data-name="Path 635" d="M195.576,405.733H192.66v2.637h4.69l2.637-2.637V403.82h-4.41Z" transform="translate(-181.484 -380.394)" fill="#fff"/>
  <path id="Path_636" data-name="Path 636" d="M355.28,254.2h-4.55l7.583,13.463,3.1-5.273V255.25l-2.73,4.619Z" transform="translate(-330.384 -239.454)" fill="#fff"/>
  <path id="Path_637" data-name="Path 637" d="M544.99,254.2v13.463h.07l4.223-2.31V254.2Z" transform="translate(-513.375 -239.454)" fill="#fff"/>
  <path id="Path_638" data-name="Path 638" d="M350.73,274.71V285l3.966,2.054v-5.3Z" transform="translate(-330.384 -258.774)" fill="#fff"/>
  <path id="Path_639" data-name="Path 639" d="M21,0A21,21,0,1,0,42,21,21,21,0,0,0,21,0Zm0,40.086A19.086,19.086,0,1,1,40.086,21,19.078,19.078,0,0,1,21,40.086Z" fill="#fff"/>
</svg>
